<svg width="1384" height="1209" viewBox="0 0 1384 1209" fill="none" xmlns="http://www.w3.org/2000/svg" style="color:#ff7a1a">
	<defs>
		<!-- Subtle vertical gradient using currentColor to add depth on dark backgrounds -->
		<linearGradient id="accentGradient" x1="0" y1="0" x2="0" y2="1">
			<stop offset="0%" stop-color="currentColor" stop-opacity="1"/>
			<stop offset="100%" stop-color="currentColor" stop-opacity="0.85"/>
		</linearGradient>
		<!-- Sheen overlay to make the gradient visible at small sizes -->
		<linearGradient id="sheen" x1="0" y1="0" x2="0" y2="1">
			<stop offset="0%" stop-color="#FFFFFF" stop-opacity="0.30"/>
			<stop offset="40%" stop-color="#FFFFFF" stop-opacity="0.00"/>
			<stop offset="100%" stop-color="#000000" stop-opacity="0.18"/>
		</linearGradient>
		<!-- Clip path matching the logo shape -->
		<clipPath id="logoClip">
			<path d="M0 602V140C0 62.6801 62.6802 0 140 0H615.536C692.45 0 754.961 62.048 755.533 138.96L758 471C758 471 558 509 468.5 580.5C379 652 379 742 379 742H140C62.6801 742 0 679.32 0 602Z"/>
			<path d="M488.5 617C415 679.5 417.5 742 417.5 742C417.5 742 566.5 738.5 625.5 742C684.5 745.5 744.5 781 789.5 829C834.5 877 869 916.5 903.5 934.5C938 952.5 966.5 953 988.5 941.5C997.243 936.93 1029.79 916.826 1050 881C1080.64 826.678 1100 750.5 1100 750.5L955 739C955 739 922.471 786.5 890 832.5C875.38 853.212 829.82 830.634 805 799C774.695 760.377 761 708.5 758 671.5C755 634.5 758 509 758 509C758 509 562 554.5 488.5 617Z"/>
			<path d="M818.5 963C815.5 949.5 820.5 928 829.5 928C838.5 928 888 988 946.5 988.5C1005 989 1017.5 977.5 1064 931C1110.5 884.5 1138 754 1138 754C1138 754 1207.5 758.5 1216.5 765C1225.5 771.5 1315.5 978.5 1317.5 991.5C1319.5 1004.5 1192 1184 1175 1209C1137 1209 941 1187 917.5 1182.5C903.5 1162 821.5 976.5 818.5 963Z"/>
			<path d="M1137 753L1100.5 750C1100.5 750 1116 668.5 1100 640.5C1084 612.5 1041.5 588.5 1021.5 574.5C1001.5 560.5 984.5 535 971.5 518C958.5 501 918.5 487 876.5 487C834.5 487 766 504.5 766 504.5V474.5C766 474.5 833 458.5 894 428C955 397.5 938 367 974.5 297.5C1011 228 1075.5 192 1173 189.5C1270.5 187 1337.5 266.5 1361 306.5C1384.5 346.5 1393 414.5 1372 481C1360.63 517 1327.5 565.5 1274.5 594.5C1221.5 623.5 1211.3 621.323 1192.5 636C1151.5 668 1137 753 1137 753Z"/>
		</clipPath>
	</defs>
	<path d="M0 602V140C0 62.6801 62.6802 0 140 0H615.536C692.45 0 754.961 62.048 755.533 138.96L758 471C758 471 558 509 468.5 580.5C379 652 379 742 379 742H140C62.6801 742 0 679.32 0 602Z" fill="url(#accentGradient)"/>
	<path d="M488.5 617C415 679.5 417.5 742 417.5 742C417.5 742 566.5 738.5 625.5 742C684.5 745.5 744.5 781 789.5 829C834.5 877 869 916.5 903.5 934.5C938 952.5 966.5 953 988.5 941.5C997.243 936.93 1029.79 916.826 1050 881C1080.64 826.678 1100 750.5 1100 750.5L955 739C955 739 922.471 786.5 890 832.5C875.38 853.212 829.82 830.634 805 799C774.695 760.377 761 708.5 758 671.5C755 634.5 758 509 758 509C758 509 562 554.5 488.5 617Z" fill="url(#accentGradient)"/>
	<path d="M818.5 963C815.5 949.5 820.5 928 829.5 928C838.5 928 888 988 946.5 988.5C1005 989 1017.5 977.5 1064 931C1110.5 884.5 1138 754 1138 754C1138 754 1207.5 758.5 1216.5 765C1225.5 771.5 1315.5 978.5 1317.5 991.5C1319.5 1004.5 1192 1184 1175 1209C1137 1209 941 1187 917.5 1182.5C903.5 1162 821.5 976.5 818.5 963Z" fill="url(#accentGradient)"/>
	<path d="M1137 753L1100.5 750C1100.5 750 1116 668.5 1100 640.5C1084 612.5 1041.5 588.5 1021.5 574.5C1001.5 560.5 984.5 535 971.5 518C958.5 501 918.5 487 876.5 487C834.5 487 766 504.5 766 504.5V474.5C766 474.5 833 458.5 894 428C955 397.5 938 367 974.5 297.5C1011 228 1075.5 192 1173 189.5C1270.5 187 1337.5 266.5 1361 306.5C1384.5 346.5 1393 414.5 1372 481C1360.63 517 1327.5 565.5 1274.5 594.5C1221.5 623.5 1211.3 621.323 1192.5 636C1151.5 668 1137 753 1137 753Z" fill="url(#accentGradient)"/>
		<!-- Sheen overlay clipped to the logo shape -->
		<rect x="0" y="0" width="1384" height="1209" fill="url(#sheen)" clip-path="url(#logoClip)"/>
</svg>
